<svg width="22" height="22" viewBox="0 0 22 22" fill="none" xmlns="http://www.w3.org/2000/svg">
<path d="M1.625 13.5V17.875L6 20.375L9.125 18.5892" stroke="#A1AFEF" stroke-width="2" stroke-linecap="round" stroke-linejoin="round"/>
<path d="M5.99998 20.375V16" stroke="#A1AFEF" stroke-width="2" stroke-linecap="round" stroke-linejoin="round"/>
<path fill-rule="evenodd" clip-rule="evenodd" d="M16 11L11.625 13.5L16 16L20.375 13.5L16 11V11Z" stroke="#4360DF" stroke-width="2" stroke-linecap="round" stroke-linejoin="round"/>
<path d="M11.625 13.5V17.875L16 20.375L20.375 17.875V13.5" stroke="#4360DF" stroke-width="2" stroke-linecap="round" stroke-linejoin="round"/>
<path d="M16 16V20.375" stroke="#4360DF" stroke-width="2" stroke-linecap="round" stroke-linejoin="round"/>
<path fill-rule="evenodd" clip-rule="evenodd" d="M11 1.625L6.625 4.125L11 6.625L15.375 4.125L11 1.625V1.625Z" stroke="#4360DF" stroke-width="2" stroke-linecap="round" stroke-linejoin="round"/>
<path d="M6.625 4.125V8.5L11 11L15.375 8.5V4.125" stroke="#4360DF" stroke-width="2" stroke-linecap="round" stroke-linejoin="round"/>
<path d="M11 6.625V11" stroke="#4360DF" stroke-width="2" stroke-linecap="round" stroke-linejoin="round"/>
<path d="M9.125 12.7858L6 11L1.625 13.5L6 16L8.5 14.5717" stroke="#A1AFEF" stroke-width="2" stroke-linecap="round" stroke-linejoin="round"/>
</svg>
