<svg width="18" height="20" viewBox="0 0 18 20" fill="none" xmlns="http://www.w3.org/2000/svg">
<path fill-rule="evenodd" clip-rule="evenodd" d="M1.00614 15.6275C1.13112 17.7864 3.43219 19.1165 5.73461 18.9921C9.48658 18.7895 12.2458 15.5988 12.5564 11.9519C12.0469 12.0676 11.5106 12.1367 11.0048 12.1639C9.95089 12.2208 9.09364 12.1344 8.2364 12.048C7.37921 11.9616 6.52197 11.8752 5.46812 11.9321C2.61297 12.0862 0.883229 13.5057 1.00614 15.6275Z" fill="white" stroke="#4360DF" stroke-width="2"/>
<path fill-rule="evenodd" clip-rule="evenodd" d="M8.77001 8.58411C9.67481 8.67842 10.5796 8.77267 11.692 8.71063C14.7059 8.54242 16.5316 6.99387 16.4021 4.67915C16.27 2.32404 13.8412 0.873084 11.4109 1.00875C7.45045 1.22966 4.53809 4.71046 4.21008 8.68885C4.74795 8.56272 5.31406 8.48741 5.84793 8.45765C6.9604 8.39561 7.8652 8.48986 8.77001 8.58411Z" stroke="#A1AFEF" stroke-width="2" stroke-linecap="round" stroke-linejoin="round"/>
</svg>
