<svg width="22" height="20" viewBox="0 0 22 20" fill="none" xmlns="http://www.w3.org/2000/svg">
<path d="M16.625 5.5L14.6842 1.68891C14.5359 1.39764 14.2759 1.17614 13.9613 1.07317C13.6466 0.970208 13.3033 0.994214 13.0067 1.13991L4.125 5.5" stroke="#A1AFEF" stroke-width="2" stroke-linecap="round" stroke-linejoin="round"/>
<path d="M19.125 15.3182V16.5455C19.125 17.9011 18.0057 19 16.625 19H4.125C2.74429 19 1.625 17.9011 1.625 16.5455V7.95455C1.625 6.59894 2.74429 5.5 4.125 5.5H16.625C18.0057 5.5 19.125 6.59894 19.125 7.95455V9.18182" stroke="#4360DF" stroke-width="2" stroke-linecap="round" stroke-linejoin="round"/>
<path fill-rule="evenodd" clip-rule="evenodd" d="M19.125 15.3182C19.8154 15.3182 20.375 14.7687 20.375 14.0909V10.4091C20.375 9.73129 19.8154 9.18182 19.125 9.18182H16C14.2741 9.18182 12.875 10.5555 12.875 12.25C12.875 13.9445 14.2741 15.3182 16 15.3182H19.125Z" stroke="#4360DF" stroke-width="2" stroke-linecap="round" stroke-linejoin="round"/>
</svg>
